<svg width="38" height="38" viewBox="0 0 38 38" fill="none" xmlns="http://www.w3.org/2000/svg">
<g clip-path="url(#clip0_163_228)">
<rect width="38" height="38" rx="5" fill="#222222"/>
<g filter="url(#filter0_di_163_228)">
<path d="M9.70881 30L13.5724 6.72727H22.7543C24.5118 6.72727 25.955 7.06439 27.0838 7.73864C28.2202 8.4053 29.0156 9.33333 29.4702 10.5227C29.9323 11.7045 30.0384 13.0682 29.7884 14.6136C29.5308 16.1667 28.9702 17.5341 28.1065 18.7159C27.2505 19.8902 26.1368 20.8068 24.7656 21.4659C23.3944 22.125 21.8111 22.4545 20.0156 22.4545H14.1634L14.8111 18.5114H19.8679C20.8224 18.5114 21.6368 18.3485 22.3111 18.0227C22.9929 17.6894 23.5346 17.2311 23.9361 16.6477C24.3376 16.0568 24.599 15.3788 24.7202 14.6136C24.849 13.8333 24.8073 13.1553 24.5952 12.5795C24.383 12.0038 23.9929 11.5568 23.4247 11.2386C22.8641 10.9129 22.1103 10.75 21.1634 10.75H17.8452L14.6293 30H9.70881Z" fill="url(#paint0_linear_163_228)"/>
</g>
</g>
<defs>
<filter id="filter0_di_163_228" x="5.70898" y="6.72754" width="28.4551" height="31.2725" filterUnits="userSpaceOnUse" color-interpolation-filters="sRGB">
<feFlood flood-opacity="0" result="BackgroundImageFix"/>
<feColorMatrix in="SourceAlpha" type="matrix" values="0 0 0 0 0 0 0 0 0 0 0 0 0 0 0 0 0 0 127 0" result="hardAlpha"/>
<feOffset dy="4"/>
<feGaussianBlur stdDeviation="2"/>
<feComposite in2="hardAlpha" operator="out"/>
<feColorMatrix type="matrix" values="0 0 0 0 0 0 0 0 0 0 0 0 0 0 0 0 0 0 0.25 0"/>
<feBlend mode="normal" in2="BackgroundImageFix" result="effect1_dropShadow_163_228"/>
<feBlend mode="normal" in="SourceGraphic" in2="effect1_dropShadow_163_228" result="shape"/>
<feColorMatrix in="SourceAlpha" type="matrix" values="0 0 0 0 0 0 0 0 0 0 0 0 0 0 0 0 0 0 127 0" result="hardAlpha"/>
<feOffset dy="4"/>
<feGaussianBlur stdDeviation="2"/>
<feComposite in2="hardAlpha" operator="arithmetic" k2="-1" k3="1"/>
<feColorMatrix type="matrix" values="0 0 0 0 1 0 0 0 0 0 0 0 0 0 0.24 0 0 0 0.36 0"/>
<feBlend mode="normal" in2="shape" result="effect2_innerShadow_163_228"/>
</filter>
<linearGradient id="paint0_linear_163_228" x1="19.5" y1="-1" x2="19.5" y2="38" gradientUnits="userSpaceOnUse">
<stop stop-color="#FF90AB"/>
<stop offset="1" stop-color="#F1D46F"/>
</linearGradient>
<clipPath id="clip0_163_228">
<rect width="38" height="38" rx="5" fill="white"/>
</clipPath>
</defs>
</svg>
