<svg width="172" height="67" viewBox="0 0 172 67" fill="none" xmlns="http://www.w3.org/2000/svg">
<path d="M10.7 49.85C10.7 50.7833 10.0333 51.25 8.7 51.25C6.6 51.25 5.16667 50.85 4.4 50.05C3.63333 49.2167 3.25 47.8333 3.25 45.9C3.28333 42.9 4.1 38.1 5.7 31.5C7.33333 24.9 8.86667 20 10.3 16.8C10.6667 15.9667 11.1833 15.1833 11.85 14.45C12.5167 13.6833 13.4 13.3 14.5 13.3C14.9667 13.3 15.35 13.5833 15.65 14.15C15.9833 14.7167 16.15 15.3667 16.15 16.1C16.15 16.8333 16.0167 17.9333 15.75 19.4C15.4833 20.8333 15.15 22.4833 14.75 24.35C14.35 26.2167 13.9 28.2333 13.4 30.4C11.6 38.6333 10.7 45.1167 10.7 49.85ZM38.1063 46.75C35.4729 49.85 32.3063 51.4 28.6063 51.4C24.9396 51.4 22.1896 50.4667 20.3563 48.6C18.5229 46.7 17.6229 44.35 17.6563 41.55C17.6229 37.5833 18.8729 34.1667 21.4063 31.3C23.9396 28.4333 27.2563 27 31.3563 27C33.2229 27 34.7229 27.2333 35.8563 27.7C37.8229 28.5 38.8063 29.25 38.8063 29.95C38.8063 30.4833 37.4229 30.7667 34.6563 30.8C31.9229 30.8 29.6229 31.75 27.7563 33.65C25.9229 35.5167 25.0063 37.8833 25.0063 40.75C25.0063 42.25 25.4396 43.5167 26.3063 44.55C27.2063 45.55 28.4563 46.05 30.0563 46.05C31.6896 46.05 33.0396 45.7167 34.1063 45.05C31.7396 43.45 30.5563 41.1333 30.5563 38.1C30.5229 36.5 31.0896 35.05 32.2563 33.75C33.4563 32.4167 34.9729 31.75 36.8063 31.75C38.6729 31.7167 40.0063 32.2167 40.8063 33.25C41.6063 34.2833 42.0063 35.6167 42.0063 37.25C42.0063 38.85 41.6229 40.55 40.8563 42.35H41.1563C42.6229 42.3167 43.8896 41.8 44.9563 40.8C45.3563 40.4 45.6896 40.05 45.9563 39.75C46.2563 39.45 46.5563 39.3 46.8563 39.3C47.3229 39.3 47.5563 39.85 47.5563 40.95C47.5563 42.9833 46.9563 44.5167 45.7563 45.55C44.5563 46.55 43.2229 47.05 41.7563 47.05C40.3229 47.05 39.1063 46.95 38.1063 46.75ZM37.6563 40.95C38.2229 39.75 38.5063 38.5833 38.5063 37.45C38.5063 36.3167 38.1396 35.75 37.4063 35.75C37.1063 35.75 36.8563 35.9667 36.6563 36.4C36.4563 36.8333 36.3563 37.25 36.3563 37.65C36.3563 38.9833 36.7896 40.0833 37.6563 40.95ZM51.7047 26.05C52.9047 26.05 54.038 27.2 55.1047 29.5C56.6714 27.8667 58.6047 27.05 60.9047 27.05C63.238 27.05 64.988 27.5667 66.1547 28.6C67.3214 29.6 67.9047 31.0333 67.9047 32.9C67.9047 34.7333 67.6547 36.6 67.1547 38.5C66.688 40.4 66.338 41.7667 66.1047 42.6C65.9047 43.4 65.8047 44.0667 65.8047 44.6C65.8047 45.1333 65.988 45.4 66.3547 45.4C66.8547 45.4 67.4714 45.0833 68.2047 44.45C68.938 43.8167 69.6714 43.1333 70.4047 42.4C71.138 41.6333 71.8047 40.9333 72.4047 40.3C73.038 39.6667 73.4714 39.35 73.7047 39.35C74.1714 39.35 74.4047 39.9167 74.4047 41.05C74.4047 43.3833 73.2547 45.6333 70.9547 47.8C67.088 50.0667 64.6214 51.2 63.5547 51.2C63.4547 51.2 63.388 51.1833 63.3547 51.15C60.688 51.15 59.3547 49.0167 59.3547 44.75C59.3547 42.9167 59.5214 41.2333 59.8547 39.7C60.2214 38.1667 60.488 37.05 60.6547 36.35C60.8214 35.65 60.9047 34.9333 60.9047 34.2C60.9047 33 60.2047 32.4 58.8047 32.4C57.438 32.4 56.1214 33.4333 54.8547 35.5C53.6214 37.5333 52.788 39.65 52.3547 41.85V42.2C52.3547 43.3333 52.5214 44.5 52.8547 45.7C53.2214 46.9 53.4047 47.7333 53.4047 48.2C53.4047 49.3333 51.988 50.45 49.1547 51.55C48.7214 51.7167 48.338 51.8 48.0047 51.8C47.1714 51.8 46.588 51.3667 46.2547 50.5C45.9547 49.6333 45.8047 48.2833 45.8047 46.45C45.8047 41.7167 45.988 38.3 46.3547 36.2C46.8547 33.0667 47.988 30.15 49.7547 27.45C50.3547 26.5167 51.0047 26.05 51.7047 26.05ZM87.4602 29.9C87.4602 27.6667 89.1935 26.55 92.6602 26.55C93.5268 26.55 94.0602 26.8333 94.2602 27.4C94.4935 27.9667 94.6102 28.8333 94.6102 30C94.6102 31.6333 94.2435 34.1667 93.5102 37.6C92.7768 41.0333 92.4268 43.35 92.4602 44.55C92.4602 45.1167 92.6435 45.4 93.0102 45.4C93.5102 45.4 94.1268 45.0833 94.8602 44.45C95.5935 43.8167 96.3268 43.1333 97.0602 42.4C97.7935 41.6333 98.4602 40.9333 99.0602 40.3C99.6935 39.6667 100.127 39.35 100.36 39.35C100.827 39.35 101.06 39.9167 101.06 41.05C101.06 43.3833 99.9102 45.6333 97.6102 47.8C93.7435 50.0667 91.2935 51.2 90.2602 51.2C90.1602 51.2 90.0768 51.1833 90.0102 51.15C88.7435 51.15 87.8435 50.7333 87.3102 49.9C86.8102 49.0667 86.4935 48.0167 86.3602 46.75C85.6935 47.9833 84.7768 49.05 83.6102 49.95C82.4435 50.8167 81.1102 51.25 79.6102 51.25C76.9768 51.25 74.9435 50.75 73.5102 49.75C72.1102 48.75 71.4102 47.2667 71.4102 45.3C71.4102 44.4333 71.5268 43.6333 71.7602 42.9C72.0268 42.1667 72.4435 41.2667 73.0102 40.2L74.4602 27.9C75.4935 27.1 76.9768 26.7 78.9102 26.7C80.4435 26.7 81.3102 27.7 81.5102 29.7C81.6768 31.3333 81.5935 32.8 81.2602 34.1C80.9602 35.3667 80.5435 36.9833 80.0102 38.95C79.4768 40.8833 79.2102 42.6 79.2102 44.1C79.2102 45.3 79.9602 45.9 81.4602 45.9C83.0935 45.9 84.5102 44.4667 85.7102 41.6C86.6435 39.4 87.2768 36.95 87.6102 34.25C87.5768 33.9833 87.5435 33.65 87.5102 33.25C87.5102 32.8167 87.4935 32.4 87.4602 32C87.4602 31.6 87.4602 31.2 87.4602 30.8V29.9ZM100.77 48.3C100.404 47.4 100.137 46.3667 99.9703 45.2C99.8036 44 99.7203 42.3333 99.7203 40.2C99.7203 38.0667 100.12 35.1833 100.92 31.55H98.6703C98.2703 31.55 98.0703 31.3833 98.0703 31.05C98.0703 30.25 98.137 29.6 98.2703 29.1C98.437 28.5667 98.8036 27.9667 99.3703 27.3H100.57C101.037 27.3 101.537 27.2833 102.07 27.25C103.67 22.1167 105.304 19.55 106.97 19.55C108.304 19.5833 109.237 20.4333 109.77 22.1C109.904 22.5667 110.054 23.0667 110.22 23.6L108.17 27.2C110.504 27.2667 111.97 27.3 112.57 27.3C113.204 27.3 113.537 27.3667 113.57 27.5C113.637 27.6 113.67 27.7667 113.67 28C113.67 28.6 113.52 29.35 113.22 30.25C112.954 31.15 112.637 31.5833 112.27 31.55L107.27 31.3C106.57 35.3667 106.22 38.7333 106.22 41.4C106.22 44.0667 106.604 45.4 107.37 45.4C108.004 45.4 109.154 44.8833 110.82 43.85C112.487 42.7833 113.687 41.7667 114.42 40.8C115.154 39.8333 115.754 39.35 116.22 39.35C116.687 39.35 116.92 39.9167 116.92 41.05C116.92 42.1833 116.52 43.35 115.72 44.55C114.92 45.7167 113.904 46.8 112.67 47.8C111.47 48.7667 110.12 49.5667 108.62 50.2C107.154 50.8333 105.87 51.15 104.77 51.15C103.67 51.15 102.82 50.9 102.22 50.4C101.654 49.8667 101.17 49.1667 100.77 48.3Z" fill="white"/>
<path d="M113 62C113 62 125.344 45.059 124.102 37.1119C122.861 29.1648 114.7 11 114.7 11L128.407 15.7845C128.407 15.7845 132.248 35.1382 134.554 36.4133C136.86 37.6883 145.287 33.9668 147.681 33.3904C150.076 32.814 153.234 15.7845 153.234 15.7845L164.549 18.7724C164.549 18.7724 162.012 26.2829 159.848 38.0726C157.684 49.8622 172 51.1722 172 51.1722L153.234 62C153.234 62 148.746 40.7798 147.681 42.0024C146.617 43.2251 136.949 45.9311 134.554 44.1845C132.159 42.4379 126.409 57.6347 126.409 57.6347L113 62Z" fill="white"/>
</svg>
