<svg width="1920" height="237" viewBox="0 0 1920 237" fill="none" xmlns="http://www.w3.org/2000/svg">
<path d="M-152.112 122.345L-176 -175.559L2086.73 -357L2110.08 -65.8036L2107.93 -58.6753L2104.14 -46.1388L2105.31 -27.1809L2112.9 -7.1963L2105.46 1.41779L2096.43 16.7049L2083.14 16.0569L2072.98 23.5534L2061.85 26.7761L2052.37 35.1775L2050.22 43.1619L2046.65 48.4854L2041.76 63.2685L2031.27 69.7296L2020.7 75.8536L2010.76 83.9496L1997.76 90.2687L1999.97 70.2865L1987.77 72.7381L1974.6 64.2335L1962.21 70.0244L1949.22 70.7232L1938.42 83.0339L1938.2 77.0899L1925.62 82.9297L1916.06 94.5582L1906.2 97.7472L1902.39 106.345L1889.82 104.166L1880.12 107.034L1875.73 115.644L1866.8 124.379L1856.68 131.186L1844.93 126.92L1833.96 130.027L1823.02 122.955L1812 126.443L1797.97 112.628L1796.08 119.873L1785.01 122.61L1772.58 121.586L1761.16 129.114L1748.17 123.749L1737.09 131.867L1725.48 136.464L1718.97 122.595L1709.17 112.142L1698.13 122.279L1685.74 115.083L1677.03 106.495L1667.83 114.429L1655.74 108.1L1642.51 106.762L1630.83 114.175L1620.96 121.956L1614.14 134.222L1605.08 144.988L1594.12 148.094L1584.49 159.283L1568.98 157.1L1557.59 153.354L1544.31 147.051L1533.94 154.873L1525.1 166.512L1515.23 175.116L1504.81 177.288L1492.51 168.851L1485.21 148.843L1476.43 129.674L1465.97 139.387L1456.99 132.878L1445.57 134.376L1433.28 130.461L1422.04 134.48L1411.22 143.469L1409.57 141.168L1402.69 149.841L1397 162.427L1389.03 172.523L1378.04 169.635L1369.02 158.743L1357.81 153.714L1348.53 169.809L1337.83 182.111L1326.34 195.197L1315.83 184.526L1309.72 171.002L1302.25 157.69L1294.11 175.029L1284.05 160.794L1272.81 157.24L1262.11 149.429L1250.37 150.2L1239.05 148.331L1227.94 145.008L1217.08 136.73L1205.77 137.945L1194.51 134.154L1183.73 140.466L1174.86 138.197L1163.77 148.783L1154.22 164.625L1140.09 156.095L1127.87 157.487L1115.47 165.574L1103.36 152.873L1093.21 141.729L1079.93 138.305L1078.04 128.588L1068.08 132.367L1058.11 128.85L1059.41 116.582L1046.44 120.225L1036.99 124.581L1027.75 134.368L1016.46 139.865L1003.27 135.132L992.622 138.418L984.586 136.116L977.174 128.555L969.117 117.38L959.039 119.387L953.029 132.444L944.837 120.629L933.912 134.8L922.79 144.943L908.97 143.105L903.634 129.312L890.314 121.711L897.893 111.509L889.422 102.492L878.495 99.3932L868.242 103.402L861.827 115.841L849.945 115.457L837.84 118.826L825.809 127.295L813.025 117.492L800.416 121.108L796.113 110.008L789.556 100.837L787.721 103.28L783.011 111.915L774.582 120.644L762.156 111.395L749.298 106.155L737.176 96.7792L724.84 87.8658L714.162 83.1712L703.374 81.809L693.264 89.9524L683.372 88.2785L681.776 90.0512L670.357 87.0949L658.307 88.2668L646.734 95.3968L635.038 100.995L622.443 97.2075L617.846 112.995L609.637 122.905L598.152 123.038L589.767 132.585L579.902 124.981L570.44 116.66L560.809 114.314L558.053 113.37L555.684 116.986L554.632 119.538L542.236 129.989L538.066 122.374L536.51 114.72L526.157 112.775L511.969 104.798L502.52 118.303L491.755 126.635L478.012 120.542L469.055 139.146L455.998 134.814L447.392 114.191L444.917 124.052L429.73 117.458L423.588 133.815L412.479 140.462L405.682 155.193L393.576 159.076L390.057 159.838L379.322 151.824L367.149 158.523L363.42 152.243L357.067 156.83L351.21 151.68L342.631 140.272L334.935 128.897L329.113 112.437L318.421 105.481L318.845 131.66L307.465 140.933L300.483 153.623L287.459 152.577L277.778 132.897L264.814 129.996L252.088 127.453L239.256 123.582L228.76 129.255L221.449 145.398L209.556 145.152L201.402 157.833L189.886 164.376L180.978 144.154L168.491 145.635L156.521 159.034L152.609 134.539L139.822 141.15L127.899 148.616L123.574 165.445L113.695 170.725L105.085 177.721L96.08 186.324L87.0211 195.822L83.1711 216.484L76.6151 202.618L65.4954 196.863L60.8669 178.833L51.9072 168.416L42.4172 159.48L29.1 168.36L29.605 172.568L20.9826 171.581L11.5451 160.688L-1.073 165.229L-8.01688 178.909L-15.4665 197.77L-29.0064 198.65L-41.7581 191.86L-42.0604 178.692L-46.6419 201.983L-49.9182 221.708L-59.714 233.767L-70.9008 227.434L-82.1628 234.265L-93.9049 225.441L-104.984 236.643L-117.423 232.192L-127.289 214.651L-134.394 195.245L-144.533 179.782L-143.63 159.973L-147.235 143.472L-146.248 142.468L-152.054 122.546L-152.112 122.345Z" fill="#222222"/>
</svg>
